<?xml version="1.0" standalone="no"?>
<!DOCTYPE svg PUBLIC "-//W3C//DTD SVG 20010904//EN"
 "http://www.w3.org/TR/2001/REC-SVG-20010904/DTD/svg10.dtd">
<svg version="1.0" xmlns="http://www.w3.org/2000/svg"
 width="175.000000pt" height="295.000000pt" viewBox="0 0 175.000000 295.000000"
 preserveAspectRatio="xMidYMid meet">

<g transform="translate(0.000000,295.000000) scale(0.100000,-0.100000)"
fill="#FFFFFF" stroke="none">
<path d="M1471 2874 c-65 -33 -94 -71 -173 -229 -117 -233 -196 -471 -237
-717 -95 -566 -17 -1116 229 -1615 37 -76 81 -157 98 -179 39 -53 102 -84 171
-84 47 0 57 4 87 34 30 30 34 40 34 85 0 28 -9 74 -21 103 -295 736 -303 1587
-24 2338 63 169 58 237 -19 274 -48 23 -84 20 -145 -10z"/>
<path d="M205 2201 c-141 -64 -181 -258 -77 -373 48 -54 102 -78 175 -78 138
0 237 97 237 235 0 99 -55 183 -142 219 -51 21 -143 20 -193 -3z"/>
<path d="M205 1066 c-60 -28 -87 -56 -114 -116 -38 -84 -20 -202 42 -268 64
-69 198 -89 284 -44 140 73 167 268 53 382 -72 73 -172 90 -265 46z"/>
</g>
</svg>
